<?xml version="1.0" encoding="iso-8859-1"?>
<!-- Generator: Adobe Illustrator 19.0.0, SVG Export Plug-In . SVG Version: 6.00 Build 0)  -->
<svg version="1.1" id="Layer_1" xmlns="http://www.w3.org/2000/svg" xmlns:xlink="http://www.w3.org/1999/xlink" x="0px" y="0px"
	 viewBox="0 0 390.271 390.271" style="enable-background:new 0 0 390.271 390.271;" xml:space="preserve">
<path style="fill:#56ACE0;" d="M52.816,347.927h29.802c-4.331,11.895-15.709,20.622-29.802,20.622
	c-17.325,0-31.418-14.093-31.418-31.418c0-17.325,14.093-31.418,31.418-31.418c13.576,0,25.471,8.663,29.802,20.622H52.816
	c-5.947,0-10.861,4.848-10.861,10.861C42.02,343.079,46.869,347.927,52.816,347.927z"/>
<path style="fill:#FFC10D;" d="M368.291,337.131c0,17.325-14.093,31.418-31.418,31.418c-17.325,0-31.418-14.093-31.418-31.418
	c0-11.378,6.529-21.657,15.709-27.087l4.848,29.285c2.715,10.861,11.96,8.663,12.477,8.663c5.947-1.099,9.762-6.529,8.663-12.477
	l-4.849-29.285C356.913,308.881,368.291,321.939,368.291,337.131z"/>
<g>
	<path style="fill:#194F82;" d="M338.489,283.992L289.681,9.244C288.582,3.814,284.251,0,278.82,0h-63.935
		c-5.947,0-10.861,4.848-10.861,10.861s4.848,10.861,10.861,10.861h55.273l38.465,219.475
		c-41.762,8.145-74.279,42.796-79.127,85.075h-78.545c-5.43-48.808-47.127-87.273-97.552-87.273
		c-5.947,0-10.861,4.848-10.861,10.861s4.848,10.861,10.861,10.861c38.465,0,70.465,28.703,75.895,65.552h-23.855
		c-4.848-23.855-26.57-42.279-52.04-42.279c-29.285,0-53.139,23.855-53.139,53.075c0,29.285,23.855,53.139,53.139,53.139
		c25.471,0,47.127-18.424,52.04-42.279H240.42c7.564-0.517,10.861-7.046,10.861-12.994c1.034-35.749,27.022-66.133,61.737-72.598
		l4.331,25.471c-19.523,7.564-33.616,27.087-33.616,49.325c0,29.285,23.855,53.139,53.139,53.139
		c29.285,0,53.139-23.855,53.139-53.139C389.947,308.364,366.675,285.091,338.489,283.992z M52.881,368.549
		c-17.325,0-31.418-14.093-31.418-31.418c0-17.325,14.093-31.418,31.418-31.418c13.576,0,25.471,8.663,29.802,20.622H52.881
		c-5.947,0-10.861,4.848-10.861,10.861c0,5.947,4.848,10.861,10.861,10.861h29.802C78.352,359.887,66.909,368.549,52.881,368.549z
		 M336.808,368.549c-17.325,0-31.418-14.093-31.418-31.418c0-11.378,6.529-21.657,15.709-27.087l4.848,29.285
		c2.715,10.861,11.895,8.663,12.477,8.663c5.947-1.099,9.762-6.529,8.663-12.477l-4.849-29.285
		c14.61,2.715,25.988,15.709,25.988,30.901C368.291,354.457,354.198,368.549,336.808,368.549z"/>
	<path style="fill:#194F82;" d="M250.699,334.933C250.699,336.032,250.699,334.416,250.699,334.933L250.699,334.933z"/>
</g>
<g>
</g>
<g>
</g>
<g>
</g>
<g>
</g>
<g>
</g>
<g>
</g>
<g>
</g>
<g>
</g>
<g>
</g>
<g>
</g>
<g>
</g>
<g>
</g>
<g>
</g>
<g>
</g>
<g>
</g>
</svg>
